# xmcd
#
# Track frame offsets: 
#        150
#        16678
#        33382
#        51014
#        70026
#        87592
#        104854
#        123401
#        142677
#        162030
#        177594
#        192859
#        211271
#        230219
#        248010
#
# Disc length: 3566 seconds
#
# Revision: 0
# Processed by: cddbd v1.5.2PL0 Copyright (c) Steve Scherf et al.
# Submitted via: ExactAudioCopyFreeDBPlugin 1.0
#
DISCID=cb0dec0f
DTITLE=LeToya - Lady Love
DYEAR=2010
DGENRE=R&B
TTITLE0=Lady Love
TTITLE1=She Ain't Got...
TTITLE2=Not Anymore
TTITLE3=Lazy
TTITLE4=Good To Me
TTITLE5=Over
TTITLE6=Regret
TTITLE7=I Need A U
TTITLE8=Take Away Love
TTITLE9=After Party
TTITLE10=Drained
TTITLE11=Tears
TTITLE12=Matter
TTITLE13=Love Rollercoaster
TTITLE14=Don't Need U
EXTD=
EXTT0=
EXTT1=
EXTT2=
EXTT3=
EXTT4=
EXTT5=
EXTT6=
EXTT7=
EXTT8=
EXTT9=
EXTT10=
EXTT11=
EXTT12=
EXTT13=
EXTT14=
PLAYORDER=
